# xmcd
#
# Track frame offsets:
#	150
#	18952
#	33414
#	52500
#	66997
#	84216
#	100878
#	117536
#	137263
#	152117
#	167167
#	183124
#
# Disc length: 2629 seconds
#
# Revision: 1
# Processed by: cddbd v1.5.2PL0 Copyright (c) Steve Scherf et al.
# Submitted via: audiograbber 1.83.01
#
DISCID=8a0a430c
DTITLE=Mark Allen Band, the - Hear again
DYEAR=1900
DGENRE=
TTITLE0=Dance with me
TTITLE1=Every single day
TTITLE2=See me now
TTITLE3=The real love from you
TTITLE4=Look at there
TTITLE5=One chance
TTITLE6=I'm for you
TTITLE7=Rock and roll situation
TTITLE8=I like what you say
TTITLE9=Give me strength
TTITLE10=Say you will
TTITLE11=Everything's right
EXTD=
EXTT0=
EXTT1=
EXTT2=
EXTT3=
EXTT4=
EXTT5=
EXTT6=
EXTT7=
EXTT8=
EXTT9=
EXTT10=
EXTT11=
PLAYORDER=
